<svg width="25" height="14" viewBox="0 0 25 14" fill="none" xmlns="http://www.w3.org/2000/svg">
<path d="M24.1562 2.75L13.6562 13.2813C13.5312 13.4063 13.3958 13.4946 13.25 13.5463C13.1042 13.5988 12.9479 13.625 12.7812 13.625C12.6146 13.625 12.4583 13.5988 12.3125 13.5463C12.1667 13.4946 12.0312 13.4063 11.9062 13.2813L1.375 2.75C1.08333 2.45833 0.9375 2.09375 0.9375 1.65625C0.9375 1.21875 1.09375 0.843751 1.40625 0.531251C1.71875 0.218751 2.08333 0.062501 2.5 0.062501C2.91667 0.062501 3.28125 0.218751 3.59375 0.531251L12.7812 9.71875L21.9688 0.531251C22.2604 0.239584 22.6196 0.09375 23.0462 0.09375C23.4738 0.09375 23.8438 0.25 24.1562 0.5625C24.4688 0.875 24.625 1.23958 24.625 1.65625C24.625 2.07292 24.4688 2.4375 24.1562 2.75Z" fill="#111B25"/>
</svg>
