<svg width="14" height="24" viewBox="0 0 14 24" fill="none" xmlns="http://www.w3.org/2000/svg">
<path d="M10.875 23.375L0.34375 12.875C0.21875 12.75 0.130416 12.6146 0.0787497 12.4688C0.0262497 12.3229 0 12.1667 0 12C0 11.8333 0.0262497 11.6771 0.0787497 11.5312C0.130416 11.3854 0.21875 11.25 0.34375 11.125L10.875 0.59375C11.1667 0.302083 11.5312 0.15625 11.9688 0.15625C12.4062 0.15625 12.7812 0.3125 13.0937 0.625C13.4062 0.9375 13.5625 1.30208 13.5625 1.71875C13.5625 2.13542 13.4062 2.5 13.0937 2.8125L3.90625 12L13.0937 21.1875C13.3854 21.4792 13.5312 21.8383 13.5312 22.265C13.5312 22.6925 13.375 23.0625 13.0625 23.375C12.75 23.6875 12.3854 23.8438 11.9688 23.8438C11.5521 23.8438 11.1875 23.6875 10.875 23.375Z" fill="#DFDFDF"/>
</svg>
