<svg width="24" height="25" viewBox="0 0 24 25" fill="none" xmlns="http://www.w3.org/2000/svg">
<g clip-path="url(#clip0_410_419)">
<path d="M18.1405 6.5C17.5874 6.5 17.1421 6.94531 17.1421 7.49844V17.4969C17.1421 20.2578 14.9062 22.4984 12.1405 22.4984C9.3749 22.4984 7.13897 20.2578 7.13897 17.4969V5.49687C7.13897 3.84219 8.47959 2.49687 10.139 2.49687C11.7983 2.49687 13.139 3.84219 13.139 5.49687V15.5C13.139 16.0531 12.689 16.4984 12.1405 16.4984C11.5921 16.4984 11.1421 16.0531 11.1421 15.5V7.49844C11.1421 6.94531 10.6921 6.5 10.1437 6.5C9.59053 6.5 9.14522 6.94531 9.14522 7.49844V15.5C9.14522 17.1594 10.4858 18.5 12.1452 18.5C13.8046 18.5 15.1452 17.1594 15.1452 15.5V5.50156C15.1405 2.74062 12.8999 0.5 10.139 0.5C7.37803 0.5 5.14209 2.74062 5.14209 5.50156V17.5016C5.14209 21.3688 8.27803 24.5 12.1405 24.5C16.003 24.5 19.139 21.3641 19.139 17.5016V7.49844C19.139 6.94531 18.6937 6.5 18.1405 6.5Z" fill="#333333" fill-opacity="0.4"/>
</g>
<defs>
<clipPath id="clip0_410_419">
<rect width="24" height="24" fill="white" transform="translate(0 0.5)"/>
</clipPath>
</defs>
</svg>
