<svg width="20" height="21" viewBox="0 0 20 21" fill="none" xmlns="http://www.w3.org/2000/svg">
<path fill-rule="evenodd" clip-rule="evenodd" d="M15.0001 6.33333C15.0001 9.09476 12.7615 11.3333 10.0001 11.3333C7.23866 11.3333 5.00008 9.09476 5.00008 6.33333C5.00008 3.57191 7.23866 1.33333 10.0001 1.33333C12.7615 1.33333 15.0001 3.57191 15.0001 6.33333ZM13.3334 6.33333C13.3334 8.17428 11.841 9.66667 10.0001 9.66667C8.15913 9.66667 6.66675 8.17428 6.66675 6.33333C6.66675 4.49238 8.15913 3 10.0001 3C11.841 3 13.3334 4.49238 13.3334 6.33333Z" fill="black" fill-opacity="0.32"/>
<path fill-rule="evenodd" clip-rule="evenodd" d="M10.0001 12.1667C7.5542 12.1667 5.79066 12.674 4.52562 13.4348C3.25552 14.1986 2.54214 15.1854 2.14819 16.0484C1.81612 16.7759 1.96726 17.5173 2.40845 18.0455C2.82901 18.549 3.48291 18.8333 4.16679 18.8333H15.8334C16.5173 18.8333 17.1712 18.549 17.5917 18.0455C18.0329 17.5173 18.1841 16.776 17.852 16.0485C17.4581 15.1854 16.7448 14.1986 15.4747 13.4348C14.2096 12.674 12.4461 12.1667 10.0001 12.1667ZM3.66437 16.7405C3.93784 16.1414 4.44016 15.431 5.38454 14.8631C6.33396 14.2921 7.78365 13.8333 10.0001 13.8333C12.2167 13.8333 13.6663 14.2921 14.6157 14.8631C15.5601 15.431 16.0624 16.1414 16.3358 16.7405C16.3681 16.8112 16.3667 16.8538 16.3635 16.8755C16.3598 16.9003 16.3476 16.9351 16.3126 16.977C16.2375 17.067 16.07 17.1667 15.8334 17.1667H4.16679C3.93018 17.1667 3.76272 17.067 3.68758 16.977C3.6526 16.9351 3.64043 16.9003 3.63673 16.8755C3.63349 16.8538 3.63208 16.8112 3.66437 16.7405Z" fill="black" fill-opacity="0.32"/>
</svg>
