<svg width="10" height="16" viewBox="0 0 10 16" fill="none" xmlns="http://www.w3.org/2000/svg">
<path d="M7.58398 15.4792L0.563151 8.47917C0.479817 8.39583 0.420929 8.30556 0.386484 8.20833C0.351484 8.11111 0.333984 8.00694 0.333984 7.89583C0.333984 7.78472 0.351484 7.68056 0.386484 7.58333C0.420929 7.48611 0.479817 7.39583 0.563151 7.3125L7.58398 0.291667C7.77843 0.0972221 8.02148 0 8.31315 0C8.60482 0 8.85482 0.104167 9.06315 0.3125C9.27148 0.520833 9.37565 0.763889 9.37565 1.04167C9.37565 1.31944 9.27148 1.5625 9.06315 1.77083L2.93815 7.89583L9.06315 14.0208C9.25759 14.2153 9.35482 14.4547 9.35482 14.7392C9.35482 15.0242 9.25065 15.2708 9.04232 15.4792C8.83398 15.6875 8.59093 15.7917 8.31315 15.7917C8.03537 15.7917 7.79232 15.6875 7.58398 15.4792Z" fill="#03B047"/>
</svg>
